<svg width="146.250000" height="41.604492" viewBox="0 0 146.25 41.6045" fill="none" xmlns="http://www.w3.org/2000/svg" xmlns:xlink="http://www.w3.org/1999/xlink">
	<desc>
			Created with Pixso.
	</desc>
	<defs/>
	<path id="Vector" d="M105.582 1.09277L105.582 7.80371C105.582 9.16406 105.226 10.167 104.49 10.8135C103.766 11.46 102.684 11.7832 101.234 11.7832C100.443 11.7832 99.6963 11.6836 98.9824 11.4824C98.2695 11.2822 97.6895 10.9922 97.2441 10.624L97.9688 9.54297C98.3584 9.85449 98.8379 10.1006 99.418 10.2783C99.9863 10.457 100.588 10.5459 101.19 10.5459C102.171 10.5459 102.896 10.334 103.364 9.89941C103.832 9.46484 104.066 8.81836 104.066 7.9375L104.066 7.34668C103.71 7.74805 103.274 8.04883 102.751 8.25C102.227 8.4502 101.67 8.55078 101.057 8.55078C100.254 8.55078 99.5293 8.39453 98.8828 8.07129C98.2363 7.74805 97.7227 7.31348 97.3555 6.7334C96.9873 6.16504 96.7979 5.50684 96.7979 4.77148C96.7979 4.03613 96.9873 3.38965 97.3555 2.80957C97.7227 2.24121 98.2363 1.79492 98.8828 1.48242C99.5293 1.1709 100.254 1.01465 101.057 1.01465C101.691 1.01465 102.271 1.12598 102.817 1.33789C103.364 1.5498 103.799 1.87305 104.155 2.28516L104.155 1.08105L105.582 1.08105L105.582 1.09277ZM102.695 6.99023C103.13 6.77832 103.476 6.47754 103.721 6.08691C103.966 5.69727 104.089 5.26172 104.089 4.77148C104.089 4.01367 103.821 3.41113 103.286 2.94336C102.751 2.47461 102.06 2.25195 101.224 2.25195C100.376 2.25195 99.6738 2.48633 99.1387 2.94336C98.6035 3.41113 98.3359 4.01367 98.3359 4.77148C98.3359 5.26172 98.459 5.69727 98.7041 6.08691C98.9492 6.47754 99.2949 6.77832 99.7295 6.99023C100.164 7.20215 100.666 7.31348 101.224 7.31348C101.77 7.31348 102.261 7.20215 102.695 6.99023Z" fill="#000000" fill-opacity="1.000000" fill-rule="nonzero"/>
	<path id="Vector" d="M111.09 1.37109C111.603 1.1377 112.227 1.01465 112.962 1.01465L112.962 2.375C112.885 2.36328 112.762 2.36328 112.617 2.36328C111.792 2.36328 111.156 2.58691 110.688 3.04395C110.22 3.50098 109.986 4.14746 109.986 4.9834L109.986 8.85156L108.47 8.85156L108.47 1.08105L109.919 1.08105L109.919 2.38574C110.187 1.95117 110.565 1.60547 111.09 1.37109Z" fill="#000000" fill-opacity="1.000000" fill-rule="nonzero"/>
	<path id="Vector" d="M122.271 5.45215L115.481 5.45215C115.57 6.13184 115.894 6.68945 116.451 7.10156C116.998 7.51367 117.688 7.72559 118.514 7.72559C119.518 7.72559 120.319 7.41406 120.933 6.78906L121.769 7.70312C121.39 8.11621 120.922 8.42773 120.354 8.63965C119.784 8.85156 119.16 8.96289 118.469 8.96289C117.589 8.96289 116.797 8.7959 116.117 8.46191C115.437 8.12695 114.901 7.64746 114.534 7.0459C114.166 6.44434 113.977 5.75293 113.977 4.99512C113.977 4.24805 114.155 3.56738 114.522 2.9541C114.891 2.35254 115.381 1.87305 116.027 1.53906C116.663 1.2041 117.388 1.03711 118.18 1.03711C118.982 1.03711 119.695 1.2041 120.319 1.53906C120.944 1.87305 121.435 2.35254 121.791 2.9541C122.148 3.55664 122.315 4.25879 122.315 5.03906C122.304 5.12793 122.293 5.27344 122.271 5.45215ZM116.352 2.82031C115.86 3.2334 115.57 3.76855 115.493 4.4375L120.854 4.4375C120.776 3.7793 120.487 3.24414 119.996 2.83203C119.506 2.41992 118.904 2.20801 118.18 2.20801C117.455 2.20801 116.842 2.41992 116.352 2.82031Z" fill="#000000" fill-opacity="1.000000" fill-rule="nonzero"/>
	<path id="Vector" d="M131.936 5.45215L125.146 5.45215C125.235 6.13184 125.559 6.68945 126.116 7.10156C126.663 7.51367 127.354 7.72559 128.179 7.72559C129.183 7.72559 129.984 7.41406 130.598 6.78906L131.434 7.70312C131.055 8.11621 130.587 8.42773 130.019 8.63965C129.449 8.85156 128.825 8.96289 128.134 8.96289C127.254 8.96289 126.462 8.7959 125.782 8.46191C125.102 8.12695 124.566 7.64746 124.199 7.0459C123.831 6.44434 123.642 5.75293 123.642 4.99512C123.642 4.24805 123.82 3.56738 124.188 2.9541C124.556 2.35254 125.046 1.87305 125.692 1.53906C126.328 1.2041 127.053 1.03711 127.845 1.03711C128.647 1.03711 129.36 1.2041 129.984 1.53906C130.609 1.87305 131.1 2.35254 131.456 2.9541C131.813 3.55664 131.98 4.25879 131.98 5.03906C131.969 5.12793 131.958 5.27344 131.936 5.45215ZM126.005 2.82031C125.515 3.2334 125.225 3.76855 125.146 4.4375L130.509 4.4375C130.431 3.7793 130.141 3.24414 129.65 2.83203C129.16 2.41992 128.558 2.20801 127.833 2.20801C127.108 2.20801 126.495 2.41992 126.005 2.82031Z" fill="#000000" fill-opacity="1.000000" fill-rule="nonzero"/>
	<path id="Vector" d="M141.066 1.88379C141.69 2.45215 142.003 3.28809 142.003 4.40332L142.003 8.87402L140.486 8.87402L140.486 4.55957C140.486 3.8125 140.297 3.24414 139.907 2.85352C139.517 2.47461 138.959 2.28516 138.234 2.28516C137.41 2.28516 136.764 2.50781 136.295 2.9541C135.827 3.40039 135.582 4.03516 135.582 4.87109L135.582 8.87402L134.065 8.87402L134.065 1.10352L135.515 1.10352L135.515 2.27441C135.815 1.87305 136.229 1.56055 136.752 1.34863C137.276 1.13672 137.867 1.02539 138.524 1.02539C139.595 1.02539 140.442 1.30371 141.066 1.88379Z" fill="#000000" fill-opacity="1.000000" fill-rule="nonzero"/>
	<path id="Vector" d="M0 26.9004C0 14.7598 7.6582 3.62305 19.3418 3.62305C27.4463 3.62305 32.3516 9.33105 32.3516 18.3271C32.3516 30.4678 24.748 41.6045 13.0986 41.6045C4.97168 41.5928 0 35.8516 0 26.9004ZM25.6738 17.8477C25.6738 12.1289 23.4443 8.87402 18.7285 8.87402C11.4043 8.87402 6.7002 17.9375 6.7002 27.3457C6.7002 33.0762 8.95215 36.3535 13.7227 36.3535C21.0469 36.3428 25.6738 27.2793 25.6738 17.8477Z" fill="#687C35" fill-opacity="1.000000" fill-rule="nonzero"/>
	<path id="Vector" d="M33.1201 33.5664C33.1201 32.5859 33.2432 31.5381 33.5664 30.334L39.1963 6.10938L30.0771 6.10938L31.1475 1.36035L46.665 1.36035L39.876 30.8916C39.7197 31.5488 39.5977 32.2852 39.5977 33.1543C39.5977 35.585 41.2363 36.6211 43.5332 36.6211C45.3945 36.6211 46.8438 36.209 48.8838 35.2832L50.3223 39.7988C47.4795 41.0361 44.7363 41.5938 41.626 41.5938C36.6768 41.5938 33.1201 38.7617 33.1201 33.5664Z" fill="#687C35" fill-opacity="1.000000" fill-rule="nonzero"/>
	<path id="Vector" d="M55.0264 34.1797C55.0264 33.165 55.2266 32.1504 55.5166 30.9912L58.7832 18.1484L48.4824 18.1484L49.5527 13.3994L66.2861 13.3994L61.8936 31.3926C61.7373 31.9502 61.6484 32.5078 61.6484 32.9863C61.6484 35.5615 63.2754 36.6104 65.6729 36.6104C67.2998 36.6104 68.8164 36.1309 70.8115 35.3506L72.2051 39.876C69.6631 40.9238 67.1553 41.582 63.7217 41.582C58.5156 41.5928 55.0264 38.918 55.0264 34.1797ZM59.2959 4.60449C59.2959 2.14062 61.6035 0 64.4131 0C67.0107 0 68.8164 1.32617 68.8164 3.70117C68.8164 6.32129 66.4863 8.30566 63.6436 8.30566C61.3135 8.30566 59.2959 7.05664 59.2959 4.60449Z" fill="#687C35" fill-opacity="1.000000" fill-rule="nonzero"/>
	<path id="Vector" d="M102.695 13.3994L96.3076 13.3994L87.4453 28.0928C85.751 30.8906 84.1006 33.7217 82.7402 36.3643L82.4951 36.3643C82.0605 33.6445 81.6484 30.8574 81.1357 28.126L78.2363 13.3994L71.8379 13.3994L77.9023 40.9238L85.4941 40.9238L92.9746 29.0508C93.1416 22.1953 96.9873 16.376 102.695 13.3994Z" fill="#687C35" fill-opacity="1.000000" fill-rule="nonzero"/>
	<path id="Vector" d="M46.7881 31.3701C46.7656 30.1777 46.3086 29.6875 45.6279 25.875C45.4385 24.8271 45.0928 21.5938 45.1602 18.8291C44.8145 21.5605 43.9893 24.7266 43.6436 25.7412C42.4062 29.4199 41.8711 29.8545 41.6709 31.0254C41.6484 31.1924 41.626 31.3701 41.6035 31.5713C41.4922 32.9873 42.3174 33.9346 43.3877 34.2578C43.5771 34.3135 43.7773 34.3584 43.9893 34.3691C44.1904 34.3809 44.4023 34.3691 44.6025 34.3359C45.7061 34.1689 46.665 33.3213 46.7656 31.9053C46.7881 31.7158 46.7881 31.5381 46.7881 31.3701Z" fill="#687C35" fill-opacity="1.000000" fill-rule="nonzero"/>
	<path id="Vector" d="M116.474 37.0449L115.983 36.5547L118.458 33.9795L118.303 33.7012C115.56 35.5518 112.461 36.9229 108.815 36.9229C104.256 36.9229 100.934 34.5146 100.934 29.2754C100.934 29.1074 100.956 28.9521 100.956 28.7842L122.305 28.7842C122.482 28.3271 122.728 27.4131 122.918 26.332C121.368 24.8711 120.632 23.1436 120.632 21.0811C120.632 19.7324 120.944 18.4951 121.535 17.3916C119.662 14.5039 116.251 12.7314 111.535 12.7314C102.517 12.7314 94.4902 19.6318 94.4902 29.543C94.4902 37.5693 99.752 41.5938 107.399 41.5938C111.703 41.5938 115.615 40.4902 118.67 38.8516C117.879 38.3047 117.132 37.7031 116.474 37.0449ZM111.302 17.4023C114.936 17.4023 117.232 19.5654 117.232 23.2666C117.232 23.7012 117.177 24.1582 117.099 24.5928L101.77 24.5928C103.498 19.9883 107.656 17.4023 111.302 17.4023Z" fill="#687C35" fill-opacity="1.000000" fill-rule="nonzero"/>
	<path id="Vector" d="M117.611 36.5439L121.257 32.7529C124.222 35.707 128.112 37.0449 132.07 37.0449C135.504 37.0449 137.856 35.9863 137.856 33.7344C137.856 31.6162 135.704 30.7686 131.067 29.3643C124.991 27.5029 121.992 25.0947 121.992 21.0811C121.992 15.5186 127.466 12.7314 133.81 12.7314C139.528 12.7314 143.631 14.7939 146.25 17.2236L142.683 20.8359C140.275 18.9404 136.964 17.291 133.107 17.291C130.019 17.291 128.102 18.3945 128.102 20.3564C128.102 22.3633 130.187 23.2773 134.857 24.7715C140.275 26.4541 143.965 28.4502 143.965 32.9316C143.965 39.0186 138.235 41.6045 130.955 41.6045C125.627 41.5938 120.644 39.6094 117.611 36.5439Z" fill="#687C35" fill-opacity="1.000000" fill-rule="nonzero"/>
</svg>
