<svg width="131.190430" height="37.330078" viewBox="0 0 131.19 37.3301" fill="none" xmlns="http://www.w3.org/2000/svg" xmlns:xlink="http://www.w3.org/1999/xlink">
	<desc>
			Created with Pixso.
	</desc>
	<defs/>
	<path id="Vector" d="M94.71 0.990234L94.71 7.00977C94.71 8.23047 94.3896 9.13086 93.7305 9.71094C93.0801 10.291 92.1104 10.5801 90.8105 10.5801C90.0996 10.5801 89.4297 10.4902 88.79 10.3105C88.1504 10.1309 87.6299 9.87109 87.2305 9.54102L87.8799 8.57031C88.2305 8.84961 88.6602 9.07031 89.1797 9.23047C89.6904 9.39062 90.2305 9.4707 90.7705 9.4707C91.6504 9.4707 92.2998 9.28125 92.7197 8.89062C93.1396 8.5 93.3496 7.91992 93.3496 7.13086L93.3496 6.58008C93.0303 6.93945 92.6396 7.21094 92.1699 7.39062C91.7002 7.57031 91.2002 7.66016 90.6504 7.66016C89.9297 7.66016 89.2803 7.51953 88.7002 7.23047C88.1201 6.93945 87.6602 6.55078 87.3301 6.03125C87 5.51953 86.8301 4.92969 86.8301 4.26953C86.8301 3.61133 87 3.03125 87.3301 2.50977C87.6602 2 88.1201 1.59961 88.7002 1.32031C89.2803 1.04102 89.9297 0.900391 90.6504 0.900391C91.2197 0.900391 91.7402 1 92.2305 1.18945C92.7197 1.38086 93.1104 1.66992 93.4297 2.04102L93.4297 0.960938L94.71 0.960938L94.71 0.990234ZM92.1201 6.26953C92.5098 6.08008 92.8203 5.81055 93.04 5.46094C93.2598 5.11133 93.3701 4.7207 93.3701 4.28125C93.3701 3.59961 93.1299 3.06055 92.6504 2.64062C92.1699 2.2207 91.5498 2.01953 90.7998 2.01953C90.04 2.01953 89.4102 2.23047 88.9297 2.64062C88.4502 3.06055 88.21 3.59961 88.21 4.28125C88.21 4.7207 88.3203 5.11133 88.54 5.46094C88.7598 5.81055 89.0703 6.08008 89.46 6.26953C89.8496 6.46094 90.2998 6.56055 90.7998 6.56055C91.29 6.56055 91.7305 6.4707 92.1201 6.26953Z" fill="#FFFFFF" fill-opacity="1.000000" fill-rule="nonzero"/>
	<path id="Vector" d="M99.6494 1.24023C100.109 1.0293 100.67 0.919922 101.33 0.919922L101.33 2.14062C101.26 2.13086 101.149 2.13086 101.02 2.13086C100.28 2.13086 99.71 2.33008 99.29 2.74023C98.8701 3.15039 98.6602 3.73047 98.6602 4.48047L98.6602 7.94922L97.2998 7.94922L97.2998 0.980469L98.5996 0.980469L98.5996 2.15039C98.8398 1.75 99.1797 1.44922 99.6494 1.24023Z" fill="#FFFFFF" fill-opacity="1.000000" fill-rule="nonzero"/>
	<path id="Vector" d="M109.681 4.89062L103.59 4.89062C103.67 5.5 103.96 6 104.46 6.36914C104.95 6.74023 105.57 6.92969 106.311 6.92969C107.21 6.92969 107.931 6.65039 108.48 6.08984L109.23 6.91016C108.891 7.2793 108.471 7.56055 107.96 7.75C107.45 7.93945 106.891 8.03906 106.271 8.03906C105.48 8.03906 104.771 7.89062 104.16 7.58984C103.55 7.28906 103.07 6.85938 102.74 6.32031C102.41 5.7793 102.24 5.16016 102.24 4.48047C102.24 3.81055 102.4 3.19922 102.73 2.65039C103.061 2.10938 103.5 1.67969 104.08 1.37891C104.65 1.08008 105.3 0.929688 106.01 0.929688C106.73 0.929688 107.37 1.08008 107.931 1.37891C108.49 1.67969 108.931 2.10938 109.25 2.65039C109.57 3.18945 109.721 3.82031 109.721 4.51953C109.71 4.60938 109.7 4.73047 109.681 4.89062ZM104.37 2.53906C103.931 2.91016 103.67 3.39062 103.601 3.99023L108.41 3.99023C108.34 3.40039 108.08 2.91992 107.641 2.54883C107.2 2.17969 106.66 1.99023 106.01 1.99023C105.36 1.99023 104.811 2.16992 104.37 2.53906Z" fill="#FFFFFF" fill-opacity="1.000000" fill-rule="nonzero"/>
	<path id="Vector" d="M118.351 4.89062L112.26 4.89062C112.34 5.5 112.63 6 113.13 6.36914C113.62 6.74023 114.24 6.92969 114.98 6.92969C115.88 6.92969 116.601 6.65039 117.15 6.08984L117.9 6.91016C117.561 7.2793 117.141 7.56055 116.63 7.75C116.12 7.93945 115.561 8.03906 114.94 8.03906C114.15 8.03906 113.44 7.89062 112.83 7.58984C112.22 7.28906 111.74 6.85938 111.41 6.32031C111.08 5.7793 110.91 5.16016 110.91 4.48047C110.91 3.81055 111.07 3.19922 111.4 2.65039C111.73 2.10938 112.17 1.67969 112.75 1.37891C113.32 1.08008 113.97 0.929688 114.68 0.929688C115.4 0.929688 116.04 1.08008 116.601 1.37891C117.16 1.67969 117.601 2.10938 117.92 2.65039C118.24 3.18945 118.391 3.82031 118.391 4.51953C118.38 4.60938 118.37 4.73047 118.351 4.89062ZM113.03 2.53906C112.59 2.91016 112.33 3.39062 112.26 3.99023L117.07 3.99023C117 3.40039 116.74 2.91992 116.3 2.54883C115.86 2.17969 115.32 1.99023 114.67 1.99023C114.021 1.99023 113.47 2.16992 113.03 2.53906Z" fill="#FFFFFF" fill-opacity="1.000000" fill-rule="nonzero"/>
	<path id="Vector" d="M126.54 1.68945C127.1 2.19922 127.38 2.94922 127.38 3.94922L127.38 7.95898L126.02 7.95898L126.02 4.08984C126.02 3.41992 125.85 2.91016 125.5 2.56055C125.149 2.2207 124.649 2.05078 124 2.05078C123.26 2.05078 122.68 2.25 122.26 2.65039C121.84 3.05078 121.62 3.61914 121.62 4.36914L121.62 7.95898L120.26 7.95898L120.26 0.990234L121.56 0.990234L121.56 2.03906C121.83 1.67969 122.2 1.40039 122.67 1.20898C123.14 1.01953 123.67 0.919922 124.26 0.919922C125.22 0.919922 125.979 1.17969 126.54 1.68945Z" fill="#FFFFFF" fill-opacity="1.000000" fill-rule="nonzero"/>
	<path id="Vector" d="M0 24.1309C0 13.2402 6.87012 3.25 17.3496 3.25C24.6201 3.25 29.0195 8.36914 29.0195 16.4395C29.0195 27.3301 22.2002 37.3203 11.75 37.3203C4.45996 37.3203 0 32.1602 0 24.1309ZM23.0303 16.0098C23.0303 10.8809 21.0303 7.96094 16.7998 7.96094C10.2305 7.96094 6.00977 16.0898 6.00977 24.5293C6.00977 29.6699 8.03027 32.6094 12.3096 32.6094C18.8799 32.6094 23.0303 24.4707 23.0303 16.0098Z" fill="#FFFFFF" fill-opacity="1.000000" fill-rule="nonzero"/>
	<path id="Vector" d="M29.7109 30.1211C29.7109 29.2402 29.8203 28.3008 30.1104 27.2207L35.1602 5.49023L26.9805 5.49023L27.9404 1.23047L41.8604 1.23047L35.7705 27.7109C35.6309 28.3008 35.5205 28.9609 35.5205 29.7402C35.5205 31.9199 36.9902 32.8496 39.0508 32.8496C40.7207 32.8496 42.0205 32.4805 43.8506 31.6504L45.1406 35.7109C42.5908 36.8203 40.1309 37.3203 37.3408 37.3203C32.9004 37.3203 29.7109 34.7695 29.7109 30.1211Z" fill="#FFFFFF" fill-opacity="1.000000" fill-rule="nonzero"/>
	<path id="Vector" d="M49.3604 30.6699C49.3604 29.7598 49.54 28.8496 49.7998 27.8105L52.7305 16.2891L43.4902 16.2891L44.4502 12.0293L59.46 12.0293L55.5205 28.1699C55.3799 28.6699 55.2998 29.1699 55.2998 29.5996C55.2998 31.9102 56.7598 32.8496 58.9102 32.8496C60.3701 32.8496 61.7305 32.4199 63.5205 31.7207L64.7705 35.7793C62.4902 36.7207 60.2402 37.3105 57.1602 37.3105C52.4902 37.3203 49.3604 34.9102 49.3604 30.6699ZM53.1904 4.13086C53.1904 1.91992 55.2598 0 57.7803 0C60.1104 0 61.7305 1.18945 61.7305 3.32031C61.7305 5.66992 59.6406 7.44922 57.0898 7.44922C55 7.46094 53.1904 6.33984 53.1904 4.13086Z" fill="#FFFFFF" fill-opacity="1.000000" fill-rule="nonzero"/>
	<path id="Vector" d="M92.1201 12.0293L86.3906 12.0293L78.4502 25.209C76.9307 27.7188 75.4502 30.2598 74.2305 32.6289L74.0098 32.6289C73.6201 30.1895 73.25 27.6895 72.79 25.2402L70.1904 12.0293L64.4502 12.0293L69.8799 36.709L76.6904 36.709L83.4004 26.0586C83.5498 19.9102 87 14.6992 92.1201 12.0293Z" fill="#FFFFFF" fill-opacity="1.000000" fill-rule="nonzero"/>
	<path id="Vector" d="M41.9697 28.1406C41.9492 27.0703 41.54 26.6309 40.9297 23.2109C40.7598 22.2715 40.4492 19.3711 40.5098 16.8906C40.1992 19.3398 39.46 22.1797 39.1494 23.0898C38.04 26.3906 37.5596 26.7812 37.3799 27.8301C37.3594 27.9805 37.3398 28.1406 37.3193 28.3203C37.2197 29.5898 37.96 30.4414 38.9199 30.7305C39.0898 30.7812 39.2695 30.8203 39.46 30.8301C39.6396 30.8398 39.8301 30.8301 40.0098 30.8008C41 30.6504 41.8594 29.8906 41.9492 28.6211C41.9697 28.4512 41.9697 28.291 41.9697 28.1406Z" fill="#FFFFFF" fill-opacity="1.000000" fill-rule="nonzero"/>
	<path id="Vector" d="M104.479 33.2305L104.05 32.7891L106.27 30.4805L106.13 30.2305C103.67 31.8906 100.89 33.1191 97.6191 33.1191C93.5293 33.1191 90.5498 30.959 90.5498 26.2598C90.5498 26.1094 90.5693 25.9707 90.5693 25.8203L109.72 25.8203C109.88 25.4102 110.1 24.5898 110.27 23.6191C108.88 22.3105 108.22 20.7598 108.22 18.9102C108.22 17.6992 108.5 16.5898 109.029 15.5996C107.35 13.0098 104.289 11.4199 100.06 11.4199C91.9697 11.4199 84.7695 17.6094 84.7695 26.5C84.7695 33.6992 89.4893 37.3105 96.3496 37.3105C100.21 37.3105 103.72 36.3203 106.46 34.8496C105.739 34.3594 105.069 33.8301 104.479 33.2305ZM99.8398 15.6094C103.1 15.6094 105.159 17.5508 105.159 20.8691C105.159 21.2598 105.109 21.6699 105.039 22.0605L91.2891 22.0605C92.8398 17.9395 96.5693 15.6094 99.8398 15.6094Z" fill="#FFFFFF" fill-opacity="1.000000" fill-rule="nonzero"/>
	<path id="Vector" d="M105.5 32.7891L108.77 29.3906C111.43 32.0391 114.92 33.2402 118.47 33.2402C121.55 33.2402 123.66 32.2891 123.66 30.2695C123.66 28.3691 121.73 27.6094 117.57 26.3496C112.12 24.6797 109.43 22.5195 109.43 18.9199C109.43 13.9297 114.34 11.4297 120.03 11.4297C125.16 11.4297 128.84 13.2793 131.19 15.459L127.99 18.6992C125.83 17 122.86 15.5195 119.4 15.5195C116.63 15.5195 114.91 16.5098 114.91 18.2695C114.91 20.0703 116.78 20.8906 120.97 22.2305C125.83 23.7402 129.14 25.5293 129.14 29.5488C129.14 35.0098 124 37.3301 117.47 37.3301C112.69 37.3203 108.22 35.5391 105.5 32.7891Z" fill="#FFFFFF" fill-opacity="1.000000" fill-rule="nonzero"/>
</svg>
